<svg xmlns="http://www.w3.org/2000/svg" width="1200" height="430" viewBox="0 0 1200 430" role="img" aria-labelledby="title desc"><title id="title">NanoDelta architecture</title><desc id="desc">Three isolated markets flow through data, strategy, risk, paper execution and API layers</desc><defs><linearGradient id="b" x1="0" x2="1"><stop stop-color="#0b1524"/><stop offset="1" stop-color="#11232d"/></linearGradient><marker id="a" markerWidth="8" markerHeight="8" refX="7" refY="4" orient="auto"><path d="M0 0l8 4-8 4z" fill="#627b91"/></marker></defs><rect width="1200" height="430" rx="18" fill="url(#b)"/>
<g font-family="Inter,Segoe UI,sans-serif"><text x="50" y="48" fill="#f8fafc" font-size="24" font-weight="700">End-to-end decision lifecycle</text><text x="50" y="76" fill="#8296aa" font-size="15">Market isolation is preserved through storage, runtime and health</text>
<g font-size="16" font-weight="650" text-anchor="middle"><rect x="50" y="112" width="180" height="58" rx="12" fill="#12342f" stroke="#2dd4bf"/><text x="140" y="147" fill="#5eead4">NSE · Dhan / TrueData</text><rect x="50" y="186" width="180" height="58" rx="12" fill="#142c42" stroke="#60a5fa"/><text x="140" y="221" fill="#93c5fd">Forex · OANDA</text><rect x="50" y="260" width="180" height="58" rx="12" fill="#2c2440" stroke="#a78bfa"/><text x="140" y="295" fill="#c4b5fd">Crypto · OKX / Poloniex</text>
<rect x="292" y="149" width="130" height="132" rx="14" fill="#172334" stroke="#42566c"/><text x="357" y="190" fill="#e2e8f0">Bronze</text><text x="357" y="218" fill="#e2e8f0">Silver</text><text x="357" y="246" fill="#e2e8f0">Gold</text>
<rect x="484" y="149" width="150" height="132" rx="14" fill="#172334" stroke="#42566c"/><text x="559" y="190" fill="#e2e8f0">Strategies</text><text x="559" y="218" fill="#e2e8f0">Validation</text><text x="559" y="246" fill="#e2e8f0">Candidates</text>
<rect x="696" y="149" width="150" height="132" rx="14" fill="#17302d" stroke="#2dd4bf"/><text x="771" y="204" fill="#5eead4">Deterministic</text><text x="771" y="232" fill="#5eead4">risk authority</text>
<rect x="908" y="149" width="150" height="132" rx="14" fill="#342a18" stroke="#f5a623"/><text x="983" y="204" fill="#fbbf24">Paper orders</text><text x="983" y="232" fill="#fbbf24">&amp; outcomes</text></g>
<g stroke="#627b91" stroke-width="2" fill="none" marker-end="url(#a)"><path d="M230 141h43q19 0 19 19v36"/><path d="M230 215h62"/><path d="M230 289h43q19 0 19-19v-36"/><path d="M422 215h62"/><path d="M634 215h62"/><path d="M846 215h62"/><path d="M983 281v45q0 18-18 18H224"/></g>
<rect x="224" y="331" width="834" height="52" rx="12" fill="#121f2d" stroke="#42566c"/><text x="641" y="363" fill="#dbe7f1" font-size="16" font-weight="650" text-anchor="middle">Authenticated BFF / API · UI · Operations · Metrics · Audit</text>
<text x="50" y="405" fill="#71869b" font-size="14">LLM/agent evidence is optional and advisory. Live order placement is not implemented.</text></g></svg>